OpenSim_Sub03_CSBaseline_LCS.mot
version=1
nRows=34
nColumns=11
inDegrees=no
endheader
time	Bot_Shank	2nd_Bot_Shank	2nd_Top_Shank	Top_Shank	Bot_Thigh	Med_Thigh	Top_Thigh	BNOx	BNOy	BNOZ
23.22000000	1295.86593279	1262.88574267	1138.67343388	984.19487468	1125.54905425	939.65117100	960.12095234	223.96841112	-69.40709220	142.62373394
23.23000000	1296.21027225	1264.67192842	1141.80598962	986.51178063	1127.84925067	940.37050062	960.28542554	223.35024262	-69.48700970	142.74042820
23.24000000	1296.72908397	1266.75649395	1147.95196332	989.05662749	1130.26937832	941.36572791	960.46906344	222.74972061	-69.51913930	143.20463391
23.25000000	1297.36842971	1269.01058524	1156.16009122	991.68439961	1132.69328634	942.59984318	960.65243800	222.16497295	-69.51533787	144.35856696
23.26000000	1298.07437122	1271.30534830	1165.47910952	994.25008133	1135.00482386	944.03583675	960.81612114	221.59412745	-69.48746231	146.54444320
23.27000000	1298.79297024	1273.51192912	1174.95775445	996.60865699	1137.08784001	945.63669895	960.94068481	221.03531195	-69.44736948	150.10447851
23.28000000	1299.47028853	1275.50147370	1183.64476225	998.61511095	1138.82618393	947.36542008	961.00670093	220.48665429	-69.40691629	155.38088877
23.29000000	1300.05239913	1277.14516114	1190.58910174	1000.12447038	1140.10374573	949.18498717	960.99475261	219.94628219	-69.37795683	162.71551829
23.30000000	1300.50036355	1278.35809906	1195.14841186	1001.04862748	1140.85881012	951.05399092	960.90023098	219.41217857	-69.36867614	171.95715701
23.31000000	1300.81977949	1279.18592274	1197.59750284	1001.46844097	1141.19128782	952.91795909	960.76252726	218.88189604	-69.37635703	181.48955084
23.32000000	1301.02447866	1279.69839997	1198.38075571	1001.49600888	1141.23097175	954.72000428	960.62916761	218.35290769	-69.39626666	189.42558161
23.33000000	1301.12829283	1279.96529858	1197.94255155	1001.24342927	1141.10765481	956.40323911	960.54767818	217.82268658	-69.42367220	193.87813117
23.34000000	1301.14505372	1280.05638637	1196.72727141	1000.82280016	1140.95112991	957.91077618	960.56558513	217.28870579	-69.45384080	192.96008134
23.35000000	1301.08859308	1280.04143116	1195.17929634	1000.34621961	1140.89118996	959.18572810	960.73041461	216.74843838	-69.48203963	184.78431396
23.36000000	1300.97274818	1279.99010419	1193.74234115	999.92560997	1141.05738546	960.17134328	961.08957482	216.19936036	-69.50354270	167.46905749
23.37000000	1300.81252881	1279.95160323	1192.71887688	999.63565167	1141.52787531	960.83966099	961.66546426	215.63956781	-69.51507448	140.26602871
23.38000000	1300.62556079	1279.92944707	1192.09624107	999.46793340	1142.26615709	961.22695665	962.42468155	215.06854035	-69.51659565	104.95590642
23.39000000	1300.42982392	1279.92097382	1191.81913159	999.40280100	1143.22021388	961.37819728	963.32627525	214.48594479	-69.50850477	63.66155460
23.40000000	1300.24329800	1279.92352160	1191.83224636	999.42060032	1144.33802881	961.33834987	964.32929387	213.89144794	-69.49120039	18.50583720
23.41000000	1300.08396281	1279.93442852	1192.08028325	999.50167718	1145.56758498	961.15238143	965.39278595	213.28471661	-69.46508108	-28.38838180
23.42000000	1299.96979815	1279.95103270	1192.50794016	999.62637744	1146.85686550	960.86525898	966.47580003	212.66541761	-69.43054538	-74.89823845
23.43000000	1299.91878383	1279.97067224	1193.05991500	999.77504693	1148.15385348	960.52194951	967.53738465	212.03321775	-69.38799186	-118.90086878
23.44000000	1299.94889962	1279.99068527	1193.68090565	999.92803149	1149.40653204	960.16742005	968.53658834	211.38778384	-69.33781907	-158.27340882
23.45000000	1300.07738670	1280.00847076	1194.31668854	1000.06611689	1150.56412479	959.84563927	969.43348004	210.72882179	-69.28042474	-190.95119034
23.46000000	1300.30449759	1280.02282757	1194.93784629	1000.18020711	1151.60438722	959.57761476	970.21159814	210.05693665	-69.21618755	-216.20804670
23.47000000	1300.61349620	1280.03395443	1195.53976772	1000.27132435	1152.53360668	959.36139298	970.87795045	209.37363262	-69.14546709	-234.65631284
23.48000000	1300.98690779	1280.04211095	1196.11892018	1000.34093073	1153.35931103	959.19402206	971.44056519	208.68045298	-69.06862216	-246.96651944
23.49000000	1301.40725765	1280.04755673	1196.67177102	1000.39048838	1154.08902813	959.07255016	971.90747061	207.97894102	-68.98601153	-253.80919718
23.50000000	1301.85707104	1280.05055136	1197.19478758	1000.42145943	1154.73028583	958.99402541	972.28669492	207.27064005	-68.89799399	-255.85487673
23.51000000	1302.31887322	1280.05135445	1197.68443722	1000.43530600	1155.29061201	958.95549596	972.58626634	206.55709334	-68.80492832	-253.77408877
23.52000000	1302.77518948	1280.05022559	1198.13718729	1000.43349021	1155.77753453	958.95400996	972.81421312	205.83984419	-68.70717330	-248.23736398
23.53000000	1303.20854507	1280.04742439	1198.54950513	1000.41747419	1156.19858123	958.98661555	972.97856347	205.12043590	-68.60508772	-239.91523304
23.54000000	1303.60146527	1280.04321045	1198.91785810	1000.38872006	1156.56127999	959.05036087	973.08734562	204.40041175	-68.49903035	-229.47822661
23.55000000	1303.93647536	1280.03784337	1199.23871354	1000.34868995	1156.87315867	959.14229407	973.14858780	203.68131502	-68.38935998	-217.59687537
